<svg xmlns="http://www.w3.org/2000/svg" viewBox="0 0 24 24" width="24" height="24">
  <!-- White rounded rectangle background -->
  <rect x="0" y="0" width="24" height="24" rx="4.21" ry="4.21" fill="white"/>
  <!-- e shape in black -->
  <path fill="black" d="M24 8.7C23.9 8.69 23.8 8.69 23.69 8.69L23.67 8.69C23.14 8.69 22.48 8.82 22.01 9.05C21.47 9.3 21.01 9.67 20.61 10.16C19.98 10.94 19.6 11.99 19.51 13.18C19.51 13.22 19.51 13.25 19.5 13.29C19.49 13.32 19.49 13.35 19.49 13.39C19.49 13.45 19.49 13.52 19.49 13.58C19.49 13.68 19.48 13.78 19.49 13.89C19.55 16.57 21.0 18.72 23.58 18.72C23.72 18.72 23.86 18.72 24.0 18.7L24.0 8.7z"/>
  <!-- e cutout top (white) -->
  <path fill="white" d="M23.66 9.25C23.78 9.25 23.89 9.27 24.0 9.3L24.0 12.38L21.85 12.38C21.93 10.57 22.57 9.27 23.66 9.25z"/>
  <!-- e cutout bottom (white) -->
  <path fill="white" d="M24.0 16.52C22.66 16.12 21.7 14.64 21.79 12.88L23.99 12.88L23.99 16.52z"/>
  <!-- M symbol in black -->
  <path fill="black" d="M4.41 5.73L4.42 5.73C5.13 5.89 5.49 6.13 5.49 6.99L5.49 17.01C5.49 17.87 5.13 18.11 4.42 18.27L4.4 18.27L4.4 18.42L7.23 18.42L7.23 18.27L7.22 18.27C6.51 18.11 6.15 17.87 6.15 17.01L6.15 7.57L10.76 18.42L11.03 18.42L15.77 7.26L15.77 17.26C15.71 17.94 15.35 18.14 14.72 18.29L14.7 18.29L14.7 18.44L19.62 18.44L19.62 18.29L19.61 18.29C18.97 18.14 18.61 17.94 18.54 17.26L18.54 6.99L18.54 6.99C18.54 6.13 18.9 5.89 19.61 5.73L19.62 5.73L19.62 5.58L15.76 5.58L12.17 14.01L8.58 5.58L4.41 5.58L4.41 5.73z"/>
</svg>